<mxfile host="app.diagrams.net" agent="Mozilla/5.0 (Windows NT 10.0; Win64; x64) AppleWebKit/537.36 (KHTML, like Gecko) Chrome/134.0.0.0 Safari/537.36" version="26.1.3">
  <diagram name="Page-1" id="bRb5ffgD9TizsARdfSJU">
    <mxGraphModel dx="1764" dy="2196" grid="1" gridSize="10" guides="1" tooltips="1" connect="1" arrows="1" fold="1" page="1" pageScale="1" pageWidth="850" pageHeight="1100" math="1" shadow="0">
      <root>
        <mxCell id="0" />
        <mxCell id="1" parent="0" />
        <mxCell id="nppyXg0QjuLSh9HYkvPr-135" value="" style="rounded=0;whiteSpace=wrap;html=1;" vertex="1" parent="1">
          <mxGeometry x="20" y="-10" width="1170" height="410" as="geometry" />
        </mxCell>
        <mxCell id="nppyXg0QjuLSh9HYkvPr-1" value="" style="shape=table;html=1;whiteSpace=wrap;startSize=0;container=1;collapsible=0;childLayout=tableLayout;columnLines=0;rowLines=0;fontSize=24;strokeColor=default;fontStyle=1" vertex="1" parent="1">
          <mxGeometry x="80" y="140" width="360" height="240" as="geometry" />
        </mxCell>
        <mxCell id="nppyXg0QjuLSh9HYkvPr-2" value="" style="shape=tableRow;horizontal=0;startSize=0;swimlaneHead=0;swimlaneBody=0;top=0;left=0;bottom=0;right=0;collapsible=0;dropTarget=0;fillColor=none;points=[[0,0.5],[1,0.5]];portConstraint=eastwest;fontSize=24;strokeColor=inherit;fontStyle=1" vertex="1" parent="nppyXg0QjuLSh9HYkvPr-1">
          <mxGeometry width="360" height="40" as="geometry" />
        </mxCell>
        <mxCell id="nppyXg0QjuLSh9HYkvPr-3" value="1" style="shape=partialRectangle;html=1;whiteSpace=wrap;connectable=0;fillColor=light-dark(#FFFFFF,#071E22);top=0;left=0;bottom=0;right=0;overflow=hidden;fontSize=24;strokeColor=inherit;fontColor=light-dark(#FFFFFF,#44AF69);fontStyle=1" vertex="1" parent="nppyXg0QjuLSh9HYkvPr-2">
          <mxGeometry width="60" height="40" as="geometry">
            <mxRectangle width="60" height="40" as="alternateBounds" />
          </mxGeometry>
        </mxCell>
        <mxCell id="nppyXg0QjuLSh9HYkvPr-4" value="2" style="shape=partialRectangle;html=1;whiteSpace=wrap;connectable=0;fillColor=light-dark(#FFFFFF,#071E22);top=0;left=0;bottom=0;right=0;overflow=hidden;fontSize=24;strokeColor=inherit;fontColor=light-dark(#FFFFFF,#44AF69);fontStyle=1" vertex="1" parent="nppyXg0QjuLSh9HYkvPr-2">
          <mxGeometry x="60" width="60" height="40" as="geometry">
            <mxRectangle width="60" height="40" as="alternateBounds" />
          </mxGeometry>
        </mxCell>
        <mxCell id="nppyXg0QjuLSh9HYkvPr-5" value="3" style="shape=partialRectangle;html=1;whiteSpace=wrap;connectable=0;fillColor=light-dark(#FFFFFF,#071E22);top=0;left=0;bottom=0;right=0;overflow=hidden;fontSize=24;strokeColor=inherit;fontColor=light-dark(#FFFFFF,#44AF69);fontStyle=1" vertex="1" parent="nppyXg0QjuLSh9HYkvPr-2">
          <mxGeometry x="120" width="60" height="40" as="geometry">
            <mxRectangle width="60" height="40" as="alternateBounds" />
          </mxGeometry>
        </mxCell>
        <mxCell id="nppyXg0QjuLSh9HYkvPr-27" value="0" style="shape=partialRectangle;html=1;whiteSpace=wrap;connectable=0;fillColor=light-dark(#FFFFFF,#071E22);top=0;left=0;bottom=0;right=0;overflow=hidden;fontSize=24;strokeColor=inherit;fontStyle=1" vertex="1" parent="nppyXg0QjuLSh9HYkvPr-2">
          <mxGeometry x="180" width="60" height="40" as="geometry">
            <mxRectangle width="60" height="40" as="alternateBounds" />
          </mxGeometry>
        </mxCell>
        <mxCell id="nppyXg0QjuLSh9HYkvPr-18" value="1" style="shape=partialRectangle;html=1;whiteSpace=wrap;connectable=0;fillColor=light-dark(#FFFFFF,#071E22);top=0;left=0;bottom=0;right=0;overflow=hidden;fontSize=24;strokeColor=inherit;fontStyle=1" vertex="1" parent="nppyXg0QjuLSh9HYkvPr-2">
          <mxGeometry x="240" width="60" height="40" as="geometry">
            <mxRectangle width="60" height="40" as="alternateBounds" />
          </mxGeometry>
        </mxCell>
        <mxCell id="nppyXg0QjuLSh9HYkvPr-64" value="5" style="shape=partialRectangle;html=1;whiteSpace=wrap;connectable=0;fillColor=light-dark(#FFFFFF,#071E22);top=0;left=0;bottom=0;right=0;overflow=hidden;fontSize=24;strokeColor=inherit;fontStyle=1" vertex="1" parent="nppyXg0QjuLSh9HYkvPr-2">
          <mxGeometry x="300" width="60" height="40" as="geometry">
            <mxRectangle width="60" height="40" as="alternateBounds" />
          </mxGeometry>
        </mxCell>
        <mxCell id="nppyXg0QjuLSh9HYkvPr-6" value="" style="shape=tableRow;horizontal=0;startSize=0;swimlaneHead=0;swimlaneBody=0;top=0;left=0;bottom=0;right=0;collapsible=0;dropTarget=0;fillColor=none;points=[[0,0.5],[1,0.5]];portConstraint=eastwest;fontSize=24;strokeColor=inherit;fontStyle=1" vertex="1" parent="nppyXg0QjuLSh9HYkvPr-1">
          <mxGeometry y="40" width="360" height="40" as="geometry" />
        </mxCell>
        <mxCell id="nppyXg0QjuLSh9HYkvPr-7" value="4" style="shape=partialRectangle;html=1;whiteSpace=wrap;connectable=0;fillColor=light-dark(#FFFFFF,#071E22);top=0;left=0;bottom=0;right=0;overflow=hidden;fontSize=24;strokeColor=inherit;fontColor=light-dark(#FFFFFF,#44AF69);fontStyle=1" vertex="1" parent="nppyXg0QjuLSh9HYkvPr-6">
          <mxGeometry width="60" height="40" as="geometry">
            <mxRectangle width="60" height="40" as="alternateBounds" />
          </mxGeometry>
        </mxCell>
        <mxCell id="nppyXg0QjuLSh9HYkvPr-8" value="5" style="shape=partialRectangle;html=1;whiteSpace=wrap;connectable=0;fillColor=light-dark(#FFFFFF,#071E22);top=0;left=0;bottom=0;right=0;overflow=hidden;fontSize=24;strokeColor=inherit;fontColor=light-dark(#FFFFFF,#44AF69);fontStyle=1" vertex="1" parent="nppyXg0QjuLSh9HYkvPr-6">
          <mxGeometry x="60" width="60" height="40" as="geometry">
            <mxRectangle width="60" height="40" as="alternateBounds" />
          </mxGeometry>
        </mxCell>
        <mxCell id="nppyXg0QjuLSh9HYkvPr-9" value="6" style="shape=partialRectangle;html=1;whiteSpace=wrap;connectable=0;fillColor=light-dark(#071E22,#071E22);top=0;left=0;bottom=0;right=0;overflow=hidden;fontSize=24;strokeColor=inherit;fontColor=light-dark(#FFFFFF,#44AF69);fontStyle=1" vertex="1" parent="nppyXg0QjuLSh9HYkvPr-6">
          <mxGeometry x="120" width="60" height="40" as="geometry">
            <mxRectangle width="60" height="40" as="alternateBounds" />
          </mxGeometry>
        </mxCell>
        <mxCell id="nppyXg0QjuLSh9HYkvPr-28" value="1" style="shape=partialRectangle;html=1;whiteSpace=wrap;connectable=0;fillColor=light-dark(#FFFFFF,#071E22);top=0;left=0;bottom=0;right=0;overflow=hidden;fontSize=24;strokeColor=inherit;fontStyle=1" vertex="1" parent="nppyXg0QjuLSh9HYkvPr-6">
          <mxGeometry x="180" width="60" height="40" as="geometry">
            <mxRectangle width="60" height="40" as="alternateBounds" />
          </mxGeometry>
        </mxCell>
        <mxCell id="nppyXg0QjuLSh9HYkvPr-19" value="2" style="shape=partialRectangle;html=1;whiteSpace=wrap;connectable=0;fillColor=light-dark(#FFFFFF,#071E22);top=0;left=0;bottom=0;right=0;overflow=hidden;fontSize=24;strokeColor=inherit;fontStyle=1" vertex="1" parent="nppyXg0QjuLSh9HYkvPr-6">
          <mxGeometry x="240" width="60" height="40" as="geometry">
            <mxRectangle width="60" height="40" as="alternateBounds" />
          </mxGeometry>
        </mxCell>
        <mxCell id="nppyXg0QjuLSh9HYkvPr-65" value="1" style="shape=partialRectangle;html=1;whiteSpace=wrap;connectable=0;fillColor=light-dark(#FFFFFF,#071E22);top=0;left=0;bottom=0;right=0;overflow=hidden;fontSize=24;strokeColor=inherit;fontStyle=1" vertex="1" parent="nppyXg0QjuLSh9HYkvPr-6">
          <mxGeometry x="300" width="60" height="40" as="geometry">
            <mxRectangle width="60" height="40" as="alternateBounds" />
          </mxGeometry>
        </mxCell>
        <mxCell id="nppyXg0QjuLSh9HYkvPr-22" style="shape=tableRow;horizontal=0;startSize=0;swimlaneHead=0;swimlaneBody=0;top=0;left=0;bottom=0;right=0;collapsible=0;dropTarget=0;fillColor=none;points=[[0,0.5],[1,0.5]];portConstraint=eastwest;fontSize=24;strokeColor=inherit;fontStyle=1" vertex="1" parent="nppyXg0QjuLSh9HYkvPr-1">
          <mxGeometry y="80" width="360" height="40" as="geometry" />
        </mxCell>
        <mxCell id="nppyXg0QjuLSh9HYkvPr-23" value="7" style="shape=partialRectangle;html=1;whiteSpace=wrap;connectable=0;fillColor=light-dark(#FFFFFF,#071E22);top=0;left=0;bottom=0;right=0;overflow=hidden;fontSize=24;strokeColor=inherit;fontColor=light-dark(#FFFFFF,#44AF69);fontStyle=1" vertex="1" parent="nppyXg0QjuLSh9HYkvPr-22">
          <mxGeometry width="60" height="40" as="geometry">
            <mxRectangle width="60" height="40" as="alternateBounds" />
          </mxGeometry>
        </mxCell>
        <mxCell id="nppyXg0QjuLSh9HYkvPr-24" value="8" style="shape=partialRectangle;html=1;whiteSpace=wrap;connectable=0;fillColor=light-dark(#FFFFFF,#071E22);top=0;left=0;bottom=0;right=0;overflow=hidden;fontSize=24;strokeColor=inherit;fontColor=light-dark(#FFFFFF,#44AF69);fontStyle=1" vertex="1" parent="nppyXg0QjuLSh9HYkvPr-22">
          <mxGeometry x="60" width="60" height="40" as="geometry">
            <mxRectangle width="60" height="40" as="alternateBounds" />
          </mxGeometry>
        </mxCell>
        <mxCell id="nppyXg0QjuLSh9HYkvPr-25" value="9" style="shape=partialRectangle;html=1;whiteSpace=wrap;connectable=0;fillColor=light-dark(#FFFFFF,#071E22);top=0;left=0;bottom=0;right=0;overflow=hidden;fontSize=24;strokeColor=inherit;fontColor=light-dark(#FFFFFF,#44AF69);fontStyle=1" vertex="1" parent="nppyXg0QjuLSh9HYkvPr-22">
          <mxGeometry x="120" width="60" height="40" as="geometry">
            <mxRectangle width="60" height="40" as="alternateBounds" />
          </mxGeometry>
        </mxCell>
        <mxCell id="nppyXg0QjuLSh9HYkvPr-29" value="2" style="shape=partialRectangle;html=1;whiteSpace=wrap;connectable=0;fillColor=light-dark(#FFFFFF,#071E22);top=0;left=0;bottom=0;right=0;overflow=hidden;fontSize=24;strokeColor=inherit;fontStyle=1" vertex="1" parent="nppyXg0QjuLSh9HYkvPr-22">
          <mxGeometry x="180" width="60" height="40" as="geometry">
            <mxRectangle width="60" height="40" as="alternateBounds" />
          </mxGeometry>
        </mxCell>
        <mxCell id="nppyXg0QjuLSh9HYkvPr-26" value="3" style="shape=partialRectangle;html=1;whiteSpace=wrap;connectable=0;fillColor=light-dark(#FFFFFF,#071E22);top=0;left=0;bottom=0;right=0;overflow=hidden;fontSize=24;strokeColor=inherit;fontStyle=1" vertex="1" parent="nppyXg0QjuLSh9HYkvPr-22">
          <mxGeometry x="240" width="60" height="40" as="geometry">
            <mxRectangle width="60" height="40" as="alternateBounds" />
          </mxGeometry>
        </mxCell>
        <mxCell id="nppyXg0QjuLSh9HYkvPr-66" value="2" style="shape=partialRectangle;html=1;whiteSpace=wrap;connectable=0;fillColor=light-dark(#FFFFFF,#071E22);top=0;left=0;bottom=0;right=0;overflow=hidden;fontSize=24;strokeColor=inherit;fontStyle=1" vertex="1" parent="nppyXg0QjuLSh9HYkvPr-22">
          <mxGeometry x="300" width="60" height="40" as="geometry">
            <mxRectangle width="60" height="40" as="alternateBounds" />
          </mxGeometry>
        </mxCell>
        <mxCell id="nppyXg0QjuLSh9HYkvPr-32" style="shape=tableRow;horizontal=0;startSize=0;swimlaneHead=0;swimlaneBody=0;top=0;left=0;bottom=0;right=0;collapsible=0;dropTarget=0;fillColor=none;points=[[0,0.5],[1,0.5]];portConstraint=eastwest;fontSize=24;strokeColor=inherit;fontStyle=1" vertex="1" parent="nppyXg0QjuLSh9HYkvPr-1">
          <mxGeometry y="120" width="360" height="40" as="geometry" />
        </mxCell>
        <mxCell id="nppyXg0QjuLSh9HYkvPr-33" value="1" style="shape=partialRectangle;html=1;whiteSpace=wrap;connectable=0;fillColor=light-dark(#FFFFFF,#071E22);top=0;left=0;bottom=0;right=0;overflow=hidden;fontSize=24;strokeColor=inherit;fontStyle=1" vertex="1" parent="nppyXg0QjuLSh9HYkvPr-32">
          <mxGeometry width="60" height="40" as="geometry">
            <mxRectangle width="60" height="40" as="alternateBounds" />
          </mxGeometry>
        </mxCell>
        <mxCell id="nppyXg0QjuLSh9HYkvPr-34" value="2" style="shape=partialRectangle;html=1;whiteSpace=wrap;connectable=0;fillColor=light-dark(#FFFFFF,#071E22);top=0;left=0;bottom=0;right=0;overflow=hidden;fontSize=24;strokeColor=inherit;fontStyle=1" vertex="1" parent="nppyXg0QjuLSh9HYkvPr-32">
          <mxGeometry x="60" width="60" height="40" as="geometry">
            <mxRectangle width="60" height="40" as="alternateBounds" />
          </mxGeometry>
        </mxCell>
        <mxCell id="nppyXg0QjuLSh9HYkvPr-35" value="3" style="shape=partialRectangle;html=1;whiteSpace=wrap;connectable=0;fillColor=light-dark(#FFFFFF,#071E22);top=0;left=0;bottom=0;right=0;overflow=hidden;fontSize=24;strokeColor=inherit;fontStyle=1" vertex="1" parent="nppyXg0QjuLSh9HYkvPr-32">
          <mxGeometry x="120" width="60" height="40" as="geometry">
            <mxRectangle width="60" height="40" as="alternateBounds" />
          </mxGeometry>
        </mxCell>
        <mxCell id="nppyXg0QjuLSh9HYkvPr-36" value="0" style="shape=partialRectangle;html=1;whiteSpace=wrap;connectable=0;fillColor=light-dark(#FFFFFF,#071E22);top=0;left=0;bottom=0;right=0;overflow=hidden;fontSize=24;strokeColor=inherit;fontColor=light-dark(#000000,#FF8000);fontStyle=1" vertex="1" parent="nppyXg0QjuLSh9HYkvPr-32">
          <mxGeometry x="180" width="60" height="40" as="geometry">
            <mxRectangle width="60" height="40" as="alternateBounds" />
          </mxGeometry>
        </mxCell>
        <mxCell id="nppyXg0QjuLSh9HYkvPr-37" value="1" style="shape=partialRectangle;html=1;whiteSpace=wrap;connectable=0;fillColor=light-dark(#FFFFFF,#071E22);top=0;left=0;bottom=0;right=0;overflow=hidden;fontSize=24;strokeColor=inherit;fontColor=light-dark(#000000,#FF8000);fontStyle=1" vertex="1" parent="nppyXg0QjuLSh9HYkvPr-32">
          <mxGeometry x="240" width="60" height="40" as="geometry">
            <mxRectangle width="60" height="40" as="alternateBounds" />
          </mxGeometry>
        </mxCell>
        <mxCell id="nppyXg0QjuLSh9HYkvPr-67" value="0" style="shape=partialRectangle;html=1;whiteSpace=wrap;connectable=0;fillColor=light-dark(#FFFFFF,#071E22);top=0;left=0;bottom=0;right=0;overflow=hidden;fontSize=24;strokeColor=inherit;fontColor=light-dark(#000000,#FF8000);fontStyle=1" vertex="1" parent="nppyXg0QjuLSh9HYkvPr-32">
          <mxGeometry x="300" width="60" height="40" as="geometry">
            <mxRectangle width="60" height="40" as="alternateBounds" />
          </mxGeometry>
        </mxCell>
        <mxCell id="nppyXg0QjuLSh9HYkvPr-14" style="shape=tableRow;horizontal=0;startSize=0;swimlaneHead=0;swimlaneBody=0;top=0;left=0;bottom=0;right=0;collapsible=0;dropTarget=0;fillColor=none;points=[[0,0.5],[1,0.5]];portConstraint=eastwest;fontSize=24;strokeColor=inherit;fontStyle=1" vertex="1" parent="nppyXg0QjuLSh9HYkvPr-1">
          <mxGeometry y="160" width="360" height="40" as="geometry" />
        </mxCell>
        <mxCell id="nppyXg0QjuLSh9HYkvPr-15" value="4" style="shape=partialRectangle;html=1;whiteSpace=wrap;connectable=0;fillColor=light-dark(#FFFFFF,#071E22);top=0;left=0;bottom=0;right=0;overflow=hidden;fontSize=24;strokeColor=inherit;fontStyle=1" vertex="1" parent="nppyXg0QjuLSh9HYkvPr-14">
          <mxGeometry width="60" height="40" as="geometry">
            <mxRectangle width="60" height="40" as="alternateBounds" />
          </mxGeometry>
        </mxCell>
        <mxCell id="nppyXg0QjuLSh9HYkvPr-16" value="5" style="shape=partialRectangle;html=1;whiteSpace=wrap;connectable=0;fillColor=light-dark(#FFFFFF,#071E22);top=0;left=0;bottom=0;right=0;overflow=hidden;fontSize=24;strokeColor=inherit;fontStyle=1" vertex="1" parent="nppyXg0QjuLSh9HYkvPr-14">
          <mxGeometry x="60" width="60" height="40" as="geometry">
            <mxRectangle width="60" height="40" as="alternateBounds" />
          </mxGeometry>
        </mxCell>
        <mxCell id="nppyXg0QjuLSh9HYkvPr-17" value="6" style="shape=partialRectangle;html=1;whiteSpace=wrap;connectable=0;fillColor=light-dark(#FFFFFF,#071E22);top=0;left=0;bottom=0;right=0;overflow=hidden;fontSize=24;strokeColor=inherit;fontStyle=1" vertex="1" parent="nppyXg0QjuLSh9HYkvPr-14">
          <mxGeometry x="120" width="60" height="40" as="geometry">
            <mxRectangle width="60" height="40" as="alternateBounds" />
          </mxGeometry>
        </mxCell>
        <mxCell id="nppyXg0QjuLSh9HYkvPr-30" value="1" style="shape=partialRectangle;html=1;whiteSpace=wrap;connectable=0;fillColor=light-dark(#FFFFFF,#071E22);top=0;left=0;bottom=0;right=0;overflow=hidden;fontSize=24;strokeColor=inherit;fontColor=light-dark(#000000,#FF8000);fontStyle=1" vertex="1" parent="nppyXg0QjuLSh9HYkvPr-14">
          <mxGeometry x="180" width="60" height="40" as="geometry">
            <mxRectangle width="60" height="40" as="alternateBounds" />
          </mxGeometry>
        </mxCell>
        <mxCell id="nppyXg0QjuLSh9HYkvPr-20" value="2" style="shape=partialRectangle;html=1;whiteSpace=wrap;connectable=0;fillColor=light-dark(#FFFFFF,#071E22);top=0;left=0;bottom=0;right=0;overflow=hidden;fontSize=24;strokeColor=inherit;fontColor=light-dark(#000000,#FF8000);fontStyle=1" vertex="1" parent="nppyXg0QjuLSh9HYkvPr-14">
          <mxGeometry x="240" width="60" height="40" as="geometry">
            <mxRectangle width="60" height="40" as="alternateBounds" />
          </mxGeometry>
        </mxCell>
        <mxCell id="nppyXg0QjuLSh9HYkvPr-68" value="7" style="shape=partialRectangle;html=1;whiteSpace=wrap;connectable=0;fillColor=light-dark(#FFFFFF,#071E22);top=0;left=0;bottom=0;right=0;overflow=hidden;fontSize=24;strokeColor=inherit;fontColor=light-dark(#000000,#FF8000);fontStyle=1" vertex="1" parent="nppyXg0QjuLSh9HYkvPr-14">
          <mxGeometry x="300" width="60" height="40" as="geometry">
            <mxRectangle width="60" height="40" as="alternateBounds" />
          </mxGeometry>
        </mxCell>
        <mxCell id="nppyXg0QjuLSh9HYkvPr-69" style="shape=tableRow;horizontal=0;startSize=0;swimlaneHead=0;swimlaneBody=0;top=0;left=0;bottom=0;right=0;collapsible=0;dropTarget=0;fillColor=none;points=[[0,0.5],[1,0.5]];portConstraint=eastwest;fontSize=24;strokeColor=inherit;fontStyle=1" vertex="1" parent="nppyXg0QjuLSh9HYkvPr-1">
          <mxGeometry y="200" width="360" height="40" as="geometry" />
        </mxCell>
        <mxCell id="nppyXg0QjuLSh9HYkvPr-70" value="4" style="shape=partialRectangle;html=1;whiteSpace=wrap;connectable=0;fillColor=light-dark(#FFFFFF,#071E22);top=0;left=0;bottom=0;right=0;overflow=hidden;fontSize=24;strokeColor=inherit;fontStyle=1" vertex="1" parent="nppyXg0QjuLSh9HYkvPr-69">
          <mxGeometry width="60" height="40" as="geometry">
            <mxRectangle width="60" height="40" as="alternateBounds" />
          </mxGeometry>
        </mxCell>
        <mxCell id="nppyXg0QjuLSh9HYkvPr-71" value="2" style="shape=partialRectangle;html=1;whiteSpace=wrap;connectable=0;fillColor=light-dark(#FFFFFF,#071E22);top=0;left=0;bottom=0;right=0;overflow=hidden;fontSize=24;strokeColor=inherit;fontStyle=1" vertex="1" parent="nppyXg0QjuLSh9HYkvPr-69">
          <mxGeometry x="60" width="60" height="40" as="geometry">
            <mxRectangle width="60" height="40" as="alternateBounds" />
          </mxGeometry>
        </mxCell>
        <mxCell id="nppyXg0QjuLSh9HYkvPr-72" value="1" style="shape=partialRectangle;html=1;whiteSpace=wrap;connectable=0;fillColor=light-dark(#FFFFFF,#071E22);top=0;left=0;bottom=0;right=0;overflow=hidden;fontSize=24;strokeColor=inherit;fontStyle=1" vertex="1" parent="nppyXg0QjuLSh9HYkvPr-69">
          <mxGeometry x="120" width="60" height="40" as="geometry">
            <mxRectangle width="60" height="40" as="alternateBounds" />
          </mxGeometry>
        </mxCell>
        <mxCell id="nppyXg0QjuLSh9HYkvPr-73" value="0" style="shape=partialRectangle;html=1;whiteSpace=wrap;connectable=0;fillColor=light-dark(#FFFFFF,#071E22);top=0;left=0;bottom=0;right=0;overflow=hidden;fontSize=24;strokeColor=inherit;fontColor=light-dark(#000000,#FF8000);fontStyle=1" vertex="1" parent="nppyXg0QjuLSh9HYkvPr-69">
          <mxGeometry x="180" width="60" height="40" as="geometry">
            <mxRectangle width="60" height="40" as="alternateBounds" />
          </mxGeometry>
        </mxCell>
        <mxCell id="nppyXg0QjuLSh9HYkvPr-74" value="3" style="shape=partialRectangle;html=1;whiteSpace=wrap;connectable=0;fillColor=light-dark(#FFFFFF,#071E22);top=0;left=0;bottom=0;right=0;overflow=hidden;fontSize=24;strokeColor=inherit;fontColor=light-dark(#000000,#FF8000);fontStyle=1" vertex="1" parent="nppyXg0QjuLSh9HYkvPr-69">
          <mxGeometry x="240" width="60" height="40" as="geometry">
            <mxRectangle width="60" height="40" as="alternateBounds" />
          </mxGeometry>
        </mxCell>
        <mxCell id="nppyXg0QjuLSh9HYkvPr-75" value="2" style="shape=partialRectangle;html=1;whiteSpace=wrap;connectable=0;fillColor=light-dark(#FFFFFF,#071E22);top=0;left=0;bottom=0;right=0;overflow=hidden;fontSize=24;strokeColor=inherit;fontColor=light-dark(#000000,#FF8000);fontStyle=1" vertex="1" parent="nppyXg0QjuLSh9HYkvPr-69">
          <mxGeometry x="300" width="60" height="40" as="geometry">
            <mxRectangle width="60" height="40" as="alternateBounds" />
          </mxGeometry>
        </mxCell>
        <mxCell id="nppyXg0QjuLSh9HYkvPr-38" value="" style="shape=table;html=1;whiteSpace=wrap;startSize=0;container=1;collapsible=0;childLayout=tableLayout;columnLines=0;rowLines=0;fontSize=24;strokeColor=default;fontStyle=1" vertex="1" parent="1">
          <mxGeometry x="550" y="200" width="180" height="120" as="geometry" />
        </mxCell>
        <mxCell id="nppyXg0QjuLSh9HYkvPr-39" value="" style="shape=tableRow;horizontal=0;startSize=0;swimlaneHead=0;swimlaneBody=0;top=0;left=0;bottom=0;right=0;collapsible=0;dropTarget=0;fillColor=none;points=[[0,0.5],[1,0.5]];portConstraint=eastwest;fontSize=24;strokeColor=inherit;fontStyle=1" vertex="1" parent="nppyXg0QjuLSh9HYkvPr-38">
          <mxGeometry width="180" height="40" as="geometry" />
        </mxCell>
        <mxCell id="nppyXg0QjuLSh9HYkvPr-40" value="0" style="shape=partialRectangle;html=1;whiteSpace=wrap;connectable=0;fillColor=light-dark(#FFFFFF,#071E22);top=0;left=0;bottom=0;right=0;overflow=hidden;fontSize=24;strokeColor=inherit;fontStyle=1" vertex="1" parent="nppyXg0QjuLSh9HYkvPr-39">
          <mxGeometry width="60" height="40" as="geometry">
            <mxRectangle width="60" height="40" as="alternateBounds" />
          </mxGeometry>
        </mxCell>
        <mxCell id="nppyXg0QjuLSh9HYkvPr-41" value="1" style="shape=partialRectangle;html=1;whiteSpace=wrap;connectable=0;fillColor=light-dark(#FFFFFF,#071E22);top=0;left=0;bottom=0;right=0;overflow=hidden;fontSize=24;strokeColor=inherit;fontStyle=1" vertex="1" parent="nppyXg0QjuLSh9HYkvPr-39">
          <mxGeometry x="60" width="60" height="40" as="geometry">
            <mxRectangle width="60" height="40" as="alternateBounds" />
          </mxGeometry>
        </mxCell>
        <mxCell id="nppyXg0QjuLSh9HYkvPr-42" value="0" style="shape=partialRectangle;html=1;whiteSpace=wrap;connectable=0;fillColor=light-dark(#FFFFFF,#071E22);top=0;left=0;bottom=0;right=0;overflow=hidden;fontSize=24;strokeColor=inherit;fontStyle=1" vertex="1" parent="nppyXg0QjuLSh9HYkvPr-39">
          <mxGeometry x="120" width="60" height="40" as="geometry">
            <mxRectangle width="60" height="40" as="alternateBounds" />
          </mxGeometry>
        </mxCell>
        <mxCell id="nppyXg0QjuLSh9HYkvPr-43" value="" style="shape=tableRow;horizontal=0;startSize=0;swimlaneHead=0;swimlaneBody=0;top=0;left=0;bottom=0;right=0;collapsible=0;dropTarget=0;fillColor=none;points=[[0,0.5],[1,0.5]];portConstraint=eastwest;fontSize=24;strokeColor=inherit;fontStyle=1" vertex="1" parent="nppyXg0QjuLSh9HYkvPr-38">
          <mxGeometry y="40" width="180" height="40" as="geometry" />
        </mxCell>
        <mxCell id="nppyXg0QjuLSh9HYkvPr-44" value="1" style="shape=partialRectangle;html=1;whiteSpace=wrap;connectable=0;fillColor=light-dark(#FFFFFF,#071E22);top=0;left=0;bottom=0;right=0;overflow=hidden;fontSize=24;strokeColor=inherit;fontStyle=1" vertex="1" parent="nppyXg0QjuLSh9HYkvPr-43">
          <mxGeometry width="60" height="40" as="geometry">
            <mxRectangle width="60" height="40" as="alternateBounds" />
          </mxGeometry>
        </mxCell>
        <mxCell id="nppyXg0QjuLSh9HYkvPr-45" value="-4" style="shape=partialRectangle;html=1;whiteSpace=wrap;connectable=0;fillColor=light-dark(#FFFFFF,#071E22);top=0;left=0;bottom=0;right=0;overflow=hidden;fontSize=24;strokeColor=inherit;fontStyle=1" vertex="1" parent="nppyXg0QjuLSh9HYkvPr-43">
          <mxGeometry x="60" width="60" height="40" as="geometry">
            <mxRectangle width="60" height="40" as="alternateBounds" />
          </mxGeometry>
        </mxCell>
        <mxCell id="nppyXg0QjuLSh9HYkvPr-46" value="1" style="shape=partialRectangle;html=1;whiteSpace=wrap;connectable=0;fillColor=light-dark(#FFFFFF,#071E22);top=0;left=0;bottom=0;right=0;overflow=hidden;fontSize=24;strokeColor=inherit;fontStyle=1" vertex="1" parent="nppyXg0QjuLSh9HYkvPr-43">
          <mxGeometry x="120" width="60" height="40" as="geometry">
            <mxRectangle width="60" height="40" as="alternateBounds" />
          </mxGeometry>
        </mxCell>
        <mxCell id="nppyXg0QjuLSh9HYkvPr-47" value="" style="shape=tableRow;horizontal=0;startSize=0;swimlaneHead=0;swimlaneBody=0;top=0;left=0;bottom=0;right=0;collapsible=0;dropTarget=0;fillColor=none;points=[[0,0.5],[1,0.5]];portConstraint=eastwest;fontSize=24;strokeColor=inherit;fontStyle=1" vertex="1" parent="nppyXg0QjuLSh9HYkvPr-38">
          <mxGeometry y="80" width="180" height="40" as="geometry" />
        </mxCell>
        <mxCell id="nppyXg0QjuLSh9HYkvPr-48" value="0" style="shape=partialRectangle;html=1;whiteSpace=wrap;connectable=0;fillColor=light-dark(#FFFFFF,#071E22);top=0;left=0;bottom=0;right=0;overflow=hidden;fontSize=24;strokeColor=inherit;fontStyle=1" vertex="1" parent="nppyXg0QjuLSh9HYkvPr-47">
          <mxGeometry width="60" height="40" as="geometry">
            <mxRectangle width="60" height="40" as="alternateBounds" />
          </mxGeometry>
        </mxCell>
        <mxCell id="nppyXg0QjuLSh9HYkvPr-49" value="1" style="shape=partialRectangle;html=1;whiteSpace=wrap;connectable=0;fillColor=light-dark(#FFFFFF,#071E22);top=0;left=0;bottom=0;right=0;overflow=hidden;fontSize=24;strokeColor=inherit;fontStyle=1" vertex="1" parent="nppyXg0QjuLSh9HYkvPr-47">
          <mxGeometry x="60" width="60" height="40" as="geometry">
            <mxRectangle width="60" height="40" as="alternateBounds" />
          </mxGeometry>
        </mxCell>
        <mxCell id="nppyXg0QjuLSh9HYkvPr-50" value="0" style="shape=partialRectangle;html=1;whiteSpace=wrap;connectable=0;fillColor=light-dark(#FFFFFF,#071E22);top=0;left=0;bottom=0;right=0;overflow=hidden;fontSize=24;strokeColor=inherit;fontStyle=1" vertex="1" parent="nppyXg0QjuLSh9HYkvPr-47">
          <mxGeometry x="120" width="60" height="40" as="geometry">
            <mxRectangle width="60" height="40" as="alternateBounds" />
          </mxGeometry>
        </mxCell>
        <mxCell id="nppyXg0QjuLSh9HYkvPr-51" value="" style="shape=table;html=1;whiteSpace=wrap;startSize=0;container=1;collapsible=0;childLayout=tableLayout;columnLines=0;rowLines=0;fontSize=24;strokeColor=default;fillColor=light-dark(#FFFFFF,#071E22);fontStyle=1" vertex="1" parent="1">
          <mxGeometry x="900" y="180" width="240" height="160" as="geometry" />
        </mxCell>
        <mxCell id="nppyXg0QjuLSh9HYkvPr-52" value="" style="shape=tableRow;horizontal=0;startSize=0;swimlaneHead=0;swimlaneBody=0;top=0;left=0;bottom=0;right=0;collapsible=0;dropTarget=0;fillColor=none;points=[[0,0.5],[1,0.5]];portConstraint=eastwest;fontSize=24;strokeColor=inherit;fontStyle=1" vertex="1" parent="nppyXg0QjuLSh9HYkvPr-51">
          <mxGeometry width="240" height="40" as="geometry" />
        </mxCell>
        <mxCell id="nppyXg0QjuLSh9HYkvPr-53" value="&lt;font style=&quot;color: light-dark(rgb(255, 255, 255), rgb(68, 175, 105));&quot;&gt;0&lt;/font&gt;" style="shape=partialRectangle;html=1;whiteSpace=wrap;connectable=0;fillColor=none;top=0;left=0;bottom=0;right=0;overflow=hidden;fontSize=24;strokeColor=inherit;fontStyle=1" vertex="1" parent="nppyXg0QjuLSh9HYkvPr-52">
          <mxGeometry width="60" height="40" as="geometry">
            <mxRectangle width="60" height="40" as="alternateBounds" />
          </mxGeometry>
        </mxCell>
        <mxCell id="nppyXg0QjuLSh9HYkvPr-54" value="-6" style="shape=partialRectangle;html=1;whiteSpace=wrap;connectable=0;fillColor=none;top=0;left=0;bottom=0;right=0;overflow=hidden;fontSize=24;strokeColor=inherit;fontStyle=1" vertex="1" parent="nppyXg0QjuLSh9HYkvPr-52">
          <mxGeometry x="60" width="60" height="40" as="geometry">
            <mxRectangle width="60" height="40" as="alternateBounds" />
          </mxGeometry>
        </mxCell>
        <mxCell id="nppyXg0QjuLSh9HYkvPr-55" value="6" style="shape=partialRectangle;html=1;whiteSpace=wrap;connectable=0;fillColor=none;top=0;left=0;bottom=0;right=0;overflow=hidden;fontSize=24;strokeColor=inherit;fontStyle=1" vertex="1" parent="nppyXg0QjuLSh9HYkvPr-52">
          <mxGeometry x="120" width="60" height="40" as="geometry">
            <mxRectangle width="60" height="40" as="alternateBounds" />
          </mxGeometry>
        </mxCell>
        <mxCell id="nppyXg0QjuLSh9HYkvPr-80" value="-2" style="shape=partialRectangle;html=1;whiteSpace=wrap;connectable=0;fillColor=none;top=0;left=0;bottom=0;right=0;overflow=hidden;fontSize=24;strokeColor=inherit;fontStyle=1" vertex="1" parent="nppyXg0QjuLSh9HYkvPr-52">
          <mxGeometry x="180" width="60" height="40" as="geometry">
            <mxRectangle width="60" height="40" as="alternateBounds" />
          </mxGeometry>
        </mxCell>
        <mxCell id="nppyXg0QjuLSh9HYkvPr-56" value="" style="shape=tableRow;horizontal=0;startSize=0;swimlaneHead=0;swimlaneBody=0;top=0;left=0;bottom=0;right=0;collapsible=0;dropTarget=0;fillColor=none;points=[[0,0.5],[1,0.5]];portConstraint=eastwest;fontSize=24;strokeColor=inherit;fontStyle=1" vertex="1" parent="nppyXg0QjuLSh9HYkvPr-51">
          <mxGeometry y="40" width="240" height="40" as="geometry" />
        </mxCell>
        <mxCell id="nppyXg0QjuLSh9HYkvPr-57" value="-9" style="shape=partialRectangle;html=1;whiteSpace=wrap;connectable=0;fillColor=none;top=0;left=0;bottom=0;right=0;overflow=hidden;fontSize=24;strokeColor=inherit;fontStyle=1" vertex="1" parent="nppyXg0QjuLSh9HYkvPr-56">
          <mxGeometry width="60" height="40" as="geometry">
            <mxRectangle width="60" height="40" as="alternateBounds" />
          </mxGeometry>
        </mxCell>
        <mxCell id="nppyXg0QjuLSh9HYkvPr-58" value="-17" style="shape=partialRectangle;html=1;whiteSpace=wrap;connectable=0;fillColor=none;top=0;left=0;bottom=0;right=0;overflow=hidden;fontSize=24;strokeColor=inherit;fontStyle=1" vertex="1" parent="nppyXg0QjuLSh9HYkvPr-56">
          <mxGeometry x="60" width="60" height="40" as="geometry">
            <mxRectangle width="60" height="40" as="alternateBounds" />
          </mxGeometry>
        </mxCell>
        <mxCell id="nppyXg0QjuLSh9HYkvPr-59" value="5" style="shape=partialRectangle;html=1;whiteSpace=wrap;connectable=0;fillColor=none;top=0;left=0;bottom=0;right=0;overflow=hidden;fontSize=24;strokeColor=inherit;fontStyle=1" vertex="1" parent="nppyXg0QjuLSh9HYkvPr-56">
          <mxGeometry x="120" width="60" height="40" as="geometry">
            <mxRectangle width="60" height="40" as="alternateBounds" />
          </mxGeometry>
        </mxCell>
        <mxCell id="nppyXg0QjuLSh9HYkvPr-81" value="-5" style="shape=partialRectangle;html=1;whiteSpace=wrap;connectable=0;fillColor=none;top=0;left=0;bottom=0;right=0;overflow=hidden;fontSize=24;strokeColor=inherit;fontStyle=1" vertex="1" parent="nppyXg0QjuLSh9HYkvPr-56">
          <mxGeometry x="180" width="60" height="40" as="geometry">
            <mxRectangle width="60" height="40" as="alternateBounds" />
          </mxGeometry>
        </mxCell>
        <mxCell id="nppyXg0QjuLSh9HYkvPr-60" value="" style="shape=tableRow;horizontal=0;startSize=0;swimlaneHead=0;swimlaneBody=0;top=0;left=0;bottom=0;right=0;collapsible=0;dropTarget=0;fillColor=none;points=[[0,0.5],[1,0.5]];portConstraint=eastwest;fontSize=24;strokeColor=inherit;fontStyle=1" vertex="1" parent="nppyXg0QjuLSh9HYkvPr-51">
          <mxGeometry y="80" width="240" height="40" as="geometry" />
        </mxCell>
        <mxCell id="nppyXg0QjuLSh9HYkvPr-61" value="9" style="shape=partialRectangle;html=1;whiteSpace=wrap;connectable=0;fillColor=none;top=0;left=0;bottom=0;right=0;overflow=hidden;fontSize=24;strokeColor=inherit;fontStyle=1" vertex="1" parent="nppyXg0QjuLSh9HYkvPr-60">
          <mxGeometry width="60" height="40" as="geometry">
            <mxRectangle width="60" height="40" as="alternateBounds" />
          </mxGeometry>
        </mxCell>
        <mxCell id="nppyXg0QjuLSh9HYkvPr-62" value="5" style="shape=partialRectangle;html=1;whiteSpace=wrap;connectable=0;fillColor=none;top=0;left=0;bottom=0;right=0;overflow=hidden;fontSize=24;strokeColor=inherit;fontStyle=1" vertex="1" parent="nppyXg0QjuLSh9HYkvPr-60">
          <mxGeometry x="60" width="60" height="40" as="geometry">
            <mxRectangle width="60" height="40" as="alternateBounds" />
          </mxGeometry>
        </mxCell>
        <mxCell id="nppyXg0QjuLSh9HYkvPr-63" value="7" style="shape=partialRectangle;html=1;whiteSpace=wrap;connectable=0;fillColor=none;top=0;left=0;bottom=0;right=0;overflow=hidden;fontSize=24;strokeColor=inherit;fontStyle=1" vertex="1" parent="nppyXg0QjuLSh9HYkvPr-60">
          <mxGeometry x="120" width="60" height="40" as="geometry">
            <mxRectangle width="60" height="40" as="alternateBounds" />
          </mxGeometry>
        </mxCell>
        <mxCell id="nppyXg0QjuLSh9HYkvPr-82" value="1" style="shape=partialRectangle;html=1;whiteSpace=wrap;connectable=0;fillColor=none;top=0;left=0;bottom=0;right=0;overflow=hidden;fontSize=24;strokeColor=inherit;fontStyle=1" vertex="1" parent="nppyXg0QjuLSh9HYkvPr-60">
          <mxGeometry x="180" width="60" height="40" as="geometry">
            <mxRectangle width="60" height="40" as="alternateBounds" />
          </mxGeometry>
        </mxCell>
        <mxCell id="nppyXg0QjuLSh9HYkvPr-76" style="shape=tableRow;horizontal=0;startSize=0;swimlaneHead=0;swimlaneBody=0;top=0;left=0;bottom=0;right=0;collapsible=0;dropTarget=0;fillColor=none;points=[[0,0.5],[1,0.5]];portConstraint=eastwest;fontSize=24;strokeColor=inherit;fontStyle=1" vertex="1" parent="nppyXg0QjuLSh9HYkvPr-51">
          <mxGeometry y="120" width="240" height="40" as="geometry" />
        </mxCell>
        <mxCell id="nppyXg0QjuLSh9HYkvPr-77" value="-6" style="shape=partialRectangle;html=1;whiteSpace=wrap;connectable=0;fillColor=none;top=0;left=0;bottom=0;right=0;overflow=hidden;fontSize=24;strokeColor=inherit;fontStyle=1" vertex="1" parent="nppyXg0QjuLSh9HYkvPr-76">
          <mxGeometry width="60" height="40" as="geometry">
            <mxRectangle width="60" height="40" as="alternateBounds" />
          </mxGeometry>
        </mxCell>
        <mxCell id="nppyXg0QjuLSh9HYkvPr-78" value="-14" style="shape=partialRectangle;html=1;whiteSpace=wrap;connectable=0;fillColor=none;top=0;left=0;bottom=0;right=0;overflow=hidden;fontSize=24;strokeColor=inherit;fontStyle=1" vertex="1" parent="nppyXg0QjuLSh9HYkvPr-76">
          <mxGeometry x="60" width="60" height="40" as="geometry">
            <mxRectangle width="60" height="40" as="alternateBounds" />
          </mxGeometry>
        </mxCell>
        <mxCell id="nppyXg0QjuLSh9HYkvPr-79" value="4" style="shape=partialRectangle;html=1;whiteSpace=wrap;connectable=0;fillColor=none;top=0;left=0;bottom=0;right=0;overflow=hidden;fontSize=24;strokeColor=inherit;fontStyle=1" vertex="1" parent="nppyXg0QjuLSh9HYkvPr-76">
          <mxGeometry x="120" width="60" height="40" as="geometry">
            <mxRectangle width="60" height="40" as="alternateBounds" />
          </mxGeometry>
        </mxCell>
        <mxCell id="nppyXg0QjuLSh9HYkvPr-83" value="&lt;font style=&quot;color: light-dark(rgb(0, 0, 0), rgb(255, 128, 0));&quot;&gt;4&lt;/font&gt;" style="shape=partialRectangle;html=1;whiteSpace=wrap;connectable=0;fillColor=none;top=0;left=0;bottom=0;right=0;overflow=hidden;fontSize=24;strokeColor=inherit;fontStyle=1" vertex="1" parent="nppyXg0QjuLSh9HYkvPr-76">
          <mxGeometry x="180" width="60" height="40" as="geometry">
            <mxRectangle width="60" height="40" as="alternateBounds" />
          </mxGeometry>
        </mxCell>
        <mxCell id="nppyXg0QjuLSh9HYkvPr-127" value="3x3 Kernel" style="text;strokeColor=none;fillColor=none;html=1;fontSize=24;fontStyle=1;verticalAlign=middle;align=center;" vertex="1" parent="1">
          <mxGeometry x="550" y="90" width="180" height="40" as="geometry" />
        </mxCell>
        <mxCell id="nppyXg0QjuLSh9HYkvPr-129" value="Feature Map" style="text;strokeColor=none;fillColor=none;html=1;fontSize=24;fontStyle=1;verticalAlign=middle;align=center;" vertex="1" parent="1">
          <mxGeometry x="930" y="90" width="180" height="40" as="geometry" />
        </mxCell>
        <mxCell id="nppyXg0QjuLSh9HYkvPr-130" value="Image Pixels" style="text;strokeColor=none;fillColor=none;html=1;fontSize=24;fontStyle=1;verticalAlign=middle;align=center;" vertex="1" parent="1">
          <mxGeometry x="180" y="90" width="180" height="40" as="geometry" />
        </mxCell>
        <mxCell id="nppyXg0QjuLSh9HYkvPr-131" value="*" style="text;strokeColor=none;fillColor=none;html=1;fontSize=60;fontStyle=1;verticalAlign=middle;align=center;" vertex="1" parent="1">
          <mxGeometry x="470" y="250" width="60" height="40" as="geometry" />
        </mxCell>
        <mxCell id="nppyXg0QjuLSh9HYkvPr-132" value="" style="endArrow=classic;html=1;rounded=0;strokeWidth=6;" edge="1" parent="1">
          <mxGeometry width="50" height="50" relative="1" as="geometry">
            <mxPoint x="750" y="260" as="sourcePoint" />
            <mxPoint x="890" y="260" as="targetPoint" />
          </mxGeometry>
        </mxCell>
        <mxCell id="nppyXg0QjuLSh9HYkvPr-136" value="&lt;font style=&quot;font-size: 28px;&quot;&gt;Convolution&lt;/font&gt;" style="text;strokeColor=none;fillColor=none;html=1;fontSize=24;fontStyle=1;verticalAlign=middle;align=center;" vertex="1" parent="1">
          <mxGeometry x="550" y="20" width="180" height="40" as="geometry" />
        </mxCell>
      </root>
    </mxGraphModel>
  </diagram>
</mxfile>
